<?xml version="1.0" encoding="UTF-8" standalone="no"?>
<!DOCTYPE svg PUBLIC "-//W3C//DTD SVG 1.1//EN" "http://www.w3.org/Graphics/SVG/1.1/DTD/svg11.dtd">
<svg width="100%" height="100%" viewBox="0 0 360 200" version="1.1" xmlns="http://www.w3.org/2000/svg" xmlns:xlink="http://www.w3.org/1999/xlink" xml:space="preserve" xmlns:serif="http://www.serif.com/" style="fill-rule:evenodd;clip-rule:evenodd;stroke-linejoin:round;stroke-miterlimit:1.41421;">
    <g transform="matrix(1.14257,0,0,1.15507,-117.945,-193.731)">
        <path d="M108.848,322.433C106.168,322.433 103.788,323.933 103.788,326.513C103.788,329.153 105.588,330.133 108.548,330.873C110.428,331.313 111.068,331.973 111.068,332.933C111.068,333.873 110.168,334.473 109.028,334.473C107.768,334.473 106.668,333.793 106.388,332.373L103.228,332.373C103.468,335.353 105.708,336.793 109.088,336.793C111.848,336.793 114.348,335.353 114.348,332.673C114.348,330.493 113.028,329.053 109.988,328.333C107.768,327.813 107.068,327.253 107.068,326.213C107.068,325.213 107.768,324.753 108.748,324.753C110.068,324.753 110.788,325.573 110.948,326.853L114.108,326.853C113.808,324.353 112.288,322.433 108.848,322.433Z" style="fill:white;fill-rule:nonzero;"/>
        <path d="M126.128,325.853L123.008,325.853L123.008,331.553C123.008,333.513 122.168,334.613 120.888,334.613C119.668,334.613 119.108,333.973 118.968,332.893C118.908,332.353 118.888,331.773 118.888,331.433L118.888,325.853L115.768,325.853L115.768,332.113C115.768,332.973 115.788,333.553 115.868,334.093C116.108,335.553 117.428,336.793 119.628,336.793C120.628,336.793 121.388,336.593 122.108,336.113L123.008,334.693L123.008,336.513L126.128,336.513L126.128,325.853Z" style="fill:white;fill-rule:nonzero;"/>
        <path d="M135.188,325.573C134.108,325.573 133.048,325.813 132.448,326.273L131.648,327.453L131.648,321.813L128.508,321.813L128.508,336.513L131.648,336.513L131.648,335.113L132.348,336.233C132.888,336.573 133.948,336.793 134.828,336.793C137.568,336.793 139.908,334.793 139.908,330.953C139.908,327.813 138.128,325.573 135.188,325.573ZM134.088,334.633C132.888,334.633 131.648,333.833 131.648,331.533L131.648,331.053C131.648,328.613 132.748,327.733 134.188,327.733C135.668,327.733 136.688,329.053 136.688,331.153C136.688,333.473 135.608,334.633 134.088,334.633Z" style="fill:white;fill-rule:nonzero;"/>
        <path d="M145.688,325.573C143.008,325.573 141.248,326.853 141.248,328.933C141.248,330.753 142.548,331.653 144.548,332.153C146.428,332.593 147.108,333.013 147.108,333.773C147.108,334.453 146.508,334.773 145.748,334.773C144.868,334.773 144.148,334.233 143.928,333.233L140.828,333.233C141.108,335.633 143.008,336.793 145.728,336.793C148.228,336.793 150.248,335.753 150.248,333.533C150.248,331.533 148.928,330.673 146.868,330.153C144.968,329.673 144.388,329.273 144.388,328.553C144.388,327.993 144.808,327.573 145.488,327.573C146.268,327.573 146.728,328.073 146.908,328.953L150.008,328.953C149.748,327.013 148.268,325.573 145.688,325.573Z" style="fill:white;fill-rule:nonzero;"/>
        <path d="M153.388,321.733C152.388,321.733 151.728,322.353 151.728,323.313C151.728,324.293 152.388,324.913 153.388,324.913C154.388,324.913 155.068,324.293 155.068,323.313C155.068,322.353 154.388,321.733 153.388,321.733ZM154.968,336.513L154.968,325.853L151.828,325.853L151.828,336.513L154.968,336.513Z" style="fill:white;fill-rule:nonzero;"/>
        <path d="M168.088,321.813L164.948,321.813L164.948,327.253L164.248,326.133C163.708,325.793 162.648,325.573 161.768,325.573C159.028,325.573 156.688,327.573 156.688,331.393C156.688,334.553 158.468,336.793 161.408,336.793C162.488,336.793 163.548,336.553 164.148,336.093L164.948,334.913L164.948,336.513L168.088,336.513L168.088,321.813ZM162.408,334.633C160.928,334.633 159.908,333.313 159.908,331.213C159.908,328.893 160.988,327.733 162.508,327.733C163.688,327.733 164.948,328.533 164.948,330.813L164.948,331.313C164.948,333.753 163.828,334.633 162.408,334.633Z" style="fill:white;fill-rule:nonzero;"/>
        <path d="M172.028,321.733C171.028,321.733 170.368,322.353 170.368,323.313C170.368,324.293 171.028,324.913 172.028,324.913C173.028,324.913 173.708,324.293 173.708,323.313C173.708,322.353 173.028,321.733 172.028,321.733ZM173.608,336.513L173.608,325.853L170.468,325.853L170.468,336.513L173.608,336.513Z" style="fill:white;fill-rule:nonzero;"/>
        <path d="M182.208,336.513L185.268,336.513C185.108,335.333 185.068,334.613 185.068,333.813L185.068,330.573C185.068,329.953 185.048,329.353 185.008,328.853C184.848,326.953 183.708,325.573 180.548,325.573C177.948,325.573 175.888,326.953 175.828,329.393L178.828,329.393C178.908,328.333 179.448,327.733 180.428,327.733C181.368,327.733 181.848,328.253 181.908,328.893C181.948,329.253 181.948,329.533 181.948,329.813L181.948,329.993L181.268,329.993C177.508,329.993 175.448,331.353 175.448,333.673C175.448,335.693 177.068,336.793 178.868,336.793C179.848,336.793 180.748,336.573 181.508,336.093L181.988,334.953L182.208,336.513ZM180.108,334.633C179.248,334.633 178.668,334.213 178.668,333.413C178.668,332.173 180.008,331.693 181.948,331.853L181.948,332.633C181.948,333.953 181.048,334.633 180.108,334.633Z" style="fill:white;fill-rule:nonzero;"/>
        <path d="M193.328,325.573C192.708,325.573 191.928,325.853 191.388,326.413L190.588,327.893L190.588,325.853L187.448,325.853L187.448,336.513L190.588,336.513L190.588,332.053C190.588,329.033 191.648,328.033 194.128,328.193L194.128,325.653C193.888,325.613 193.668,325.573 193.328,325.573Z" style="fill:white;fill-rule:nonzero;"/>
        <path d="M206.008,325.853L202.588,325.853L200.168,334.093L197.728,325.853L194.228,325.853L198.608,336.993L198.468,337.333C198.068,338.253 197.468,338.573 196.568,338.573C196.248,338.573 195.968,338.573 195.688,338.533L195.688,340.633C196.128,340.693 196.508,340.713 197.048,340.713C199.368,340.713 200.528,339.833 201.748,336.733L206.008,325.853Z" style="fill:white;fill-rule:nonzero;"/>
        <path d="M215.768,325.573C212.228,325.573 210.148,327.853 210.148,331.173C210.148,334.493 212.228,336.793 215.768,336.793C219.288,336.793 221.388,334.493 221.388,331.173C221.388,327.853 219.288,325.573 215.768,325.573ZM215.768,334.633C214.268,334.633 213.368,333.393 213.368,331.173C213.368,328.953 214.268,327.733 215.768,327.733C217.248,327.733 218.148,328.953 218.148,331.173C218.148,333.393 217.248,334.633 215.768,334.633Z" style="fill:white;fill-rule:nonzero;"/>
        <path d="M226.588,324.733C226.688,323.813 227.608,323.453 228.908,323.693L228.908,321.573C228.548,321.493 228.128,321.433 227.708,321.433C224.828,321.433 223.608,322.573 223.448,324.453C223.428,324.813 223.428,325.313 223.428,325.653L223.428,325.933L222.288,325.933L222.288,327.933L223.428,327.933L223.428,336.513L226.548,336.513L226.548,327.933L228.728,327.933L228.728,325.933L226.548,325.933L226.548,325.613C226.548,325.333 226.548,325.013 226.588,324.733Z" style="fill:white;fill-rule:nonzero;"/>
        <path d="M242.048,332.613L243.308,336.513L246.708,336.513L241.788,322.713L237.908,322.713L232.928,336.513L236.268,336.513L237.548,332.613L242.048,332.613ZM239.808,325.433L241.268,330.153L238.328,330.153L239.808,325.433Z" style="fill:white;fill-rule:nonzero;"/>
        <path d="M253.588,325.573C252.968,325.573 252.188,325.853 251.648,326.413L250.848,327.893L250.848,325.853L247.708,325.853L247.708,336.513L250.848,336.513L250.848,332.053C250.848,329.033 251.908,328.033 254.388,328.193L254.388,325.653C254.148,325.613 253.928,325.573 253.588,325.573Z" style="fill:white;fill-rule:nonzero;"/>
        <path d="M261.888,336.513L264.948,336.513C264.788,335.333 264.748,334.613 264.748,333.813L264.748,330.573C264.748,329.953 264.728,329.353 264.688,328.853C264.528,326.953 263.388,325.573 260.228,325.573C257.628,325.573 255.568,326.953 255.508,329.393L258.508,329.393C258.588,328.333 259.128,327.733 260.108,327.733C261.048,327.733 261.528,328.253 261.588,328.893C261.628,329.253 261.628,329.533 261.628,329.813L261.628,329.993L260.948,329.993C257.188,329.993 255.128,331.353 255.128,333.673C255.128,335.693 256.748,336.793 258.548,336.793C259.528,336.793 260.428,336.573 261.188,336.093L261.668,334.953L261.888,336.513ZM259.788,334.633C258.928,334.633 258.348,334.213 258.348,333.413C258.348,332.173 259.688,331.693 261.628,331.853L261.628,332.633C261.628,333.953 260.728,334.633 259.788,334.633Z" style="fill:white;fill-rule:nonzero;"/>
        <path d="M277.868,325.853L274.728,325.853L274.728,327.253L274.028,326.133C273.488,325.793 272.428,325.573 271.548,325.573C268.808,325.573 266.468,327.453 266.468,331.273C266.468,334.433 268.388,336.493 271.348,336.493C272.428,336.493 273.328,336.233 273.928,335.793L274.728,334.613L274.728,334.893C274.728,335.393 274.708,335.853 274.688,336.233C274.608,337.813 273.588,338.553 272.048,338.553C270.748,338.553 269.888,338.033 269.788,337.173L269.768,336.993L266.728,336.993L266.748,337.193C266.988,339.573 268.828,340.873 271.968,340.873C275.448,340.873 277.728,339.293 277.848,335.873C277.868,335.293 277.868,334.473 277.868,333.813L277.868,325.853ZM272.188,334.333C270.708,334.333 269.688,333.133 269.688,331.033C269.688,328.713 270.768,327.733 272.288,327.733C273.468,327.733 274.728,328.533 274.728,330.813L274.728,331.013C274.728,333.453 273.608,334.333 272.188,334.333Z" style="fill:white;fill-rule:nonzero;"/>
        <path d="M285.208,325.573C281.668,325.573 279.588,327.853 279.588,331.173C279.588,334.493 281.668,336.793 285.208,336.793C288.728,336.793 290.828,334.493 290.828,331.173C290.828,327.853 288.728,325.573 285.208,325.573ZM285.208,334.633C283.708,334.633 282.808,333.393 282.808,331.173C282.808,328.953 283.708,327.733 285.208,327.733C286.688,327.733 287.588,328.953 287.588,331.173C287.588,333.393 286.688,334.633 285.208,334.633Z" style="fill:white;fill-rule:nonzero;"/>
        <path d="M302.788,328.513C302.548,326.653 301.248,325.573 299.008,325.573C298.008,325.573 297.248,325.773 296.528,326.253L295.648,327.533L295.648,325.853L292.508,325.853L292.508,336.513L295.648,336.513L295.648,331.573C295.648,328.853 296.568,327.733 297.808,327.733C299.028,327.733 299.628,328.413 299.708,329.493C299.748,330.033 299.748,330.573 299.748,330.973L299.748,336.513L302.888,336.513L302.888,330.493C302.888,329.633 302.868,329.053 302.788,328.513Z" style="fill:white;fill-rule:nonzero;"/>
        <path d="M319.608,334.053L312.508,334.053L312.508,330.813L318.948,330.813L318.948,328.373L312.508,328.373L312.508,325.153L319.408,325.153L319.408,322.713L309.368,322.713L309.368,336.513L319.608,336.513L319.608,334.053Z" style="fill:white;fill-rule:nonzero;"/>
        <path d="M331.648,328.513C331.408,326.653 330.108,325.573 327.868,325.573C326.868,325.573 326.108,325.773 325.388,326.253L324.508,327.533L324.508,325.853L321.368,325.853L321.368,336.513L324.508,336.513L324.508,331.573C324.508,328.853 325.428,327.733 326.668,327.733C327.888,327.733 328.488,328.413 328.568,329.493C328.608,330.033 328.608,330.573 328.608,330.973L328.608,336.513L331.748,336.513L331.748,330.493C331.748,329.633 331.728,329.053 331.648,328.513Z" style="fill:white;fill-rule:nonzero;"/>
        <path d="M337.748,327.933L340.008,327.933L340.008,325.933L337.748,325.933L337.748,323.253L334.608,323.253L334.608,325.933L332.988,325.933L332.988,327.933L334.608,327.933L334.608,332.833C334.608,333.433 334.608,333.913 334.648,334.453C334.768,336.013 335.528,336.773 337.868,336.773C338.548,336.773 339.168,336.713 339.808,336.613L339.808,334.613C338.208,334.713 337.848,334.473 337.768,333.413C337.748,333.133 337.748,332.773 337.748,332.413L337.748,327.933Z" style="fill:white;fill-rule:nonzero;"/>
        <path d="M351.408,330.993C351.408,328.153 349.648,325.573 346.248,325.573C342.868,325.573 340.728,328.013 340.728,331.213C340.728,334.973 343.068,336.793 346.048,336.793C348.648,336.793 350.648,335.493 351.228,333.033L348.128,333.033C347.948,334.033 347.208,334.633 346.108,334.633C344.928,334.633 344.048,334.033 343.868,331.993L351.348,331.993C351.388,331.613 351.408,331.273 351.408,330.993ZM346.108,327.733C347.268,327.733 347.968,328.513 348.148,330.013L343.948,330.013C344.208,328.433 344.988,327.733 346.108,327.733Z" style="fill:white;fill-rule:nonzero;"/>
        <path d="M359.028,325.573C358.408,325.573 357.628,325.853 357.088,326.413L356.288,327.893L356.288,325.853L353.148,325.853L353.148,336.513L356.288,336.513L356.288,332.053C356.288,329.033 357.348,328.033 359.828,328.193L359.828,325.653C359.588,325.613 359.368,325.573 359.028,325.573Z" style="fill:white;fill-rule:nonzero;"/>
        <path d="M367.788,325.573C366.708,325.573 365.648,325.813 365.048,326.273L364.248,327.453L364.248,325.853L361.108,325.853L361.108,340.433L364.248,340.433L364.248,335.113L364.948,336.233C365.488,336.573 366.548,336.793 367.428,336.793C370.168,336.793 372.508,334.793 372.508,330.953C372.508,327.813 370.728,325.573 367.788,325.573ZM366.688,334.633C365.488,334.633 364.248,333.833 364.248,331.533L364.248,331.053C364.248,328.613 365.348,327.733 366.788,327.733C368.268,327.733 369.288,329.053 369.288,331.153C369.288,333.473 368.208,334.633 366.688,334.633Z" style="fill:white;fill-rule:nonzero;"/>
        <path d="M380.088,325.573C379.468,325.573 378.688,325.853 378.148,326.413L377.348,327.893L377.348,325.853L374.208,325.853L374.208,336.513L377.348,336.513L377.348,332.053C377.348,329.033 378.408,328.033 380.888,328.193L380.888,325.653C380.648,325.613 380.428,325.573 380.088,325.573Z" style="fill:white;fill-rule:nonzero;"/>
        <path d="M383.728,321.733C382.728,321.733 382.068,322.353 382.068,323.313C382.068,324.293 382.728,324.913 383.728,324.913C384.728,324.913 385.408,324.293 385.408,323.313C385.408,322.353 384.728,321.733 383.728,321.733ZM385.308,336.513L385.308,325.853L382.168,325.853L382.168,336.513L385.308,336.513Z" style="fill:white;fill-rule:nonzero;"/>
        <path d="M391.768,325.573C389.088,325.573 387.328,326.853 387.328,328.933C387.328,330.753 388.628,331.653 390.628,332.153C392.508,332.593 393.188,333.013 393.188,333.773C393.188,334.453 392.588,334.773 391.828,334.773C390.948,334.773 390.228,334.233 390.008,333.233L386.908,333.233C387.188,335.633 389.088,336.793 391.808,336.793C394.308,336.793 396.328,335.753 396.328,333.533C396.328,331.533 395.008,330.673 392.948,330.153C391.048,329.673 390.468,329.273 390.468,328.553C390.468,327.993 390.888,327.573 391.568,327.573C392.348,327.573 392.808,328.073 392.988,328.953L396.088,328.953C395.828,327.013 394.348,325.573 391.768,325.573Z" style="fill:white;fill-rule:nonzero;"/>
        <path d="M407.928,330.993C407.928,328.153 406.168,325.573 402.768,325.573C399.388,325.573 397.248,328.013 397.248,331.213C397.248,334.973 399.588,336.793 402.568,336.793C405.168,336.793 407.168,335.493 407.748,333.033L404.648,333.033C404.468,334.033 403.728,334.633 402.628,334.633C401.448,334.633 400.568,334.033 400.388,331.993L407.868,331.993C407.908,331.613 407.928,331.273 407.928,330.993ZM402.628,327.733C403.788,327.733 404.488,328.513 404.668,330.013L400.468,330.013C400.728,328.433 401.508,327.733 402.628,327.733Z" style="fill:white;fill-rule:nonzero;"/>
        <path d="M413.748,325.573C411.068,325.573 409.308,326.853 409.308,328.933C409.308,330.753 410.608,331.653 412.608,332.153C414.488,332.593 415.168,333.013 415.168,333.773C415.168,334.453 414.568,334.773 413.808,334.773C412.928,334.773 412.208,334.233 411.988,333.233L408.888,333.233C409.168,335.633 411.068,336.793 413.788,336.793C416.288,336.793 418.308,335.753 418.308,333.533C418.308,331.533 416.988,330.673 414.928,330.153C413.028,329.673 412.448,329.273 412.448,328.553C412.448,327.993 412.868,327.573 413.548,327.573C414.328,327.573 414.788,328.073 414.968,328.953L418.068,328.953C417.808,327.013 416.328,325.573 413.748,325.573Z" style="fill:white;fill-rule:nonzero;"/>
    </g>
    <g transform="matrix(1.13949,0,0,1.10139,-85.6162,-161.266)">
        <path d="M91.36,280.17L98.704,280.17C98.32,277.338 98.224,275.61 98.224,273.69L98.224,265.914C98.224,264.426 98.176,262.986 98.08,261.786C97.696,257.226 94.96,253.914 87.376,253.914C81.136,253.914 76.192,257.226 76.048,263.082L83.248,263.082C83.44,260.538 84.736,259.098 87.088,259.098C89.344,259.098 90.496,260.346 90.64,261.882C90.736,262.746 90.736,263.418 90.736,264.09L90.736,264.522L89.104,264.522C80.08,264.522 75.136,267.786 75.136,273.354C75.136,278.202 79.024,280.842 83.344,280.842C85.696,280.842 87.856,280.314 89.68,279.162L90.832,276.426L91.36,280.17ZM86.32,275.658C84.256,275.658 82.864,274.65 82.864,272.73C82.864,269.754 86.08,268.602 90.736,268.986L90.736,270.858C90.736,274.026 88.576,275.658 86.32,275.658Z" style="fill:white;fill-rule:nonzero;"/>
        <path d="M118.048,253.914C116.56,253.914 114.688,254.586 113.392,255.93L111.472,259.482L111.472,254.586L103.936,254.586L103.936,280.17L111.472,280.17L111.472,269.466C111.472,262.218 114.016,259.818 119.968,260.202L119.968,254.106C119.392,254.01 118.864,253.914 118.048,253.914Z" style="fill:white;fill-rule:nonzero;"/>
        <path d="M137.968,280.17L145.312,280.17C144.928,277.338 144.832,275.61 144.832,273.69L144.832,265.914C144.832,264.426 144.784,262.986 144.688,261.786C144.304,257.226 141.568,253.914 133.984,253.914C127.744,253.914 122.8,257.226 122.656,263.082L129.856,263.082C130.048,260.538 131.344,259.098 133.696,259.098C135.952,259.098 137.104,260.346 137.248,261.882C137.344,262.746 137.344,263.418 137.344,264.09L137.344,264.522L135.712,264.522C126.688,264.522 121.744,267.786 121.744,273.354C121.744,278.202 125.632,280.842 129.952,280.842C132.304,280.842 134.464,280.314 136.288,279.162L137.44,276.426L137.968,280.17ZM132.928,275.658C130.864,275.658 129.472,274.65 129.472,272.73C129.472,269.754 132.688,268.602 137.344,268.986L137.344,270.858C137.344,274.026 135.184,275.658 132.928,275.658Z" style="fill:white;fill-rule:nonzero;"/>
        <path d="M176.32,254.586L168.784,254.586L168.784,257.946L167.104,255.258C165.808,254.442 163.264,253.914 161.152,253.914C154.576,253.914 148.96,258.426 148.96,267.594C148.96,275.178 153.568,280.122 160.672,280.122C163.264,280.122 165.424,279.498 166.864,278.442L168.784,275.61L168.784,276.282C168.784,277.482 168.736,278.586 168.688,279.498C168.496,283.29 166.048,285.066 162.352,285.066C159.232,285.066 157.168,283.818 156.928,281.754L156.88,281.322L149.584,281.322L149.632,281.802C150.208,287.514 154.624,290.634 162.16,290.634C170.512,290.634 175.984,286.842 176.272,278.634C176.32,277.242 176.32,275.274 176.32,273.69L176.32,254.586ZM162.688,274.938C159.136,274.938 156.688,272.058 156.688,267.018C156.688,261.45 159.28,259.098 162.928,259.098C165.76,259.098 168.784,261.018 168.784,266.49L168.784,266.97C168.784,272.826 166.096,274.938 162.688,274.938Z" style="fill:white;fill-rule:nonzero;"/>
        <path d="M193.936,253.914C185.44,253.914 180.448,259.386 180.448,267.354C180.448,275.322 185.44,280.842 193.936,280.842C202.384,280.842 207.424,275.322 207.424,267.354C207.424,259.386 202.384,253.914 193.936,253.914ZM193.936,275.658C190.336,275.658 188.176,272.682 188.176,267.354C188.176,262.026 190.336,259.098 193.936,259.098C197.488,259.098 199.648,262.026 199.648,267.354C199.648,272.682 197.488,275.658 193.936,275.658Z" style="fill:white;fill-rule:nonzero;"/>
        <path d="M236.128,260.97C235.552,256.506 232.432,253.914 227.056,253.914C224.656,253.914 222.832,254.394 221.104,255.546L218.992,258.618L218.992,254.586L211.456,254.586L211.456,280.17L218.992,280.17L218.992,268.314C218.992,261.786 221.2,259.098 224.176,259.098C227.104,259.098 228.544,260.73 228.736,263.322C228.832,264.618 228.832,265.914 228.832,266.874L228.832,280.17L236.368,280.17L236.368,265.722C236.368,263.658 236.32,262.266 236.128,260.97Z" style="fill:white;fill-rule:nonzero;"/>
    </g>
    <path d="M360,0L360,171.317L188.502,171.317L188.502,0L360,0ZM226.633,119.713L226.633,158.253L235.167,158.253L235.167,144.191L237.07,147.151C238.537,148.05 241.418,148.631 243.81,148.631C251.257,148.631 257.617,143.345 257.617,133.194C257.617,124.894 252.779,118.973 244.789,118.973C241.853,118.973 238.972,119.608 237.341,120.824L235.167,123.943L235.167,119.713L226.633,119.713ZM196.735,139.221C197.496,145.565 202.66,148.631 210.053,148.631C216.848,148.631 222.338,145.882 222.338,140.014C222.338,134.728 218.751,132.454 213.152,131.08C207.988,129.811 206.411,128.754 206.411,126.85C206.411,125.37 207.553,124.26 209.401,124.26C211.521,124.26 212.771,125.582 213.26,127.908L221.686,127.908C220.979,122.78 216.957,118.973 209.945,118.973C202.66,118.973 197.877,122.357 197.877,127.855C197.877,132.666 201.41,135.045 206.846,136.366C211.956,137.529 213.804,138.64 213.804,140.649C213.804,142.446 212.173,143.292 210.108,143.292C207.716,143.292 205.759,141.865 205.161,139.221L196.735,139.221ZM276.589,130.657C266.369,130.657 260.77,134.252 260.77,140.384C260.77,145.724 265.173,148.631 270.065,148.631C272.729,148.631 275.175,148.05 277.241,146.781L278.545,143.768L279.143,147.891L287.46,147.891C287.025,144.772 286.917,142.869 286.917,140.754L286.917,132.19C286.917,130.551 286.862,128.965 286.754,127.643C286.319,122.621 283.22,118.973 274.632,118.973C267.565,118.973 261.966,122.621 261.803,129.071L269.957,129.071C270.174,126.269 271.642,124.683 274.305,124.683C276.86,124.683 278.165,126.057 278.328,127.749C278.437,128.701 278.437,129.441 278.437,130.181L278.437,130.657L276.589,130.657ZM311.541,137.9C310.889,141.177 308.823,142.922 306.214,142.922C302.681,142.922 300.343,140.067 300.343,133.512C300.343,127.538 302.626,124.683 306.214,124.683C309.041,124.683 311.052,126.269 311.65,130.128L319.967,130.128C319.532,123.837 314.531,118.973 306.432,118.973C298.223,118.973 291.592,124.366 291.592,134.04C291.592,143.609 297.68,148.631 305.725,148.631C313.281,148.631 318.825,144.984 319.967,137.9L311.541,137.9ZM342.852,138.693C342.363,141.336 340.351,142.922 337.362,142.922C334.155,142.922 331.763,141.336 331.274,135.943L351.604,135.943C351.713,134.939 351.767,134.04 351.767,133.3C351.767,125.793 346.983,118.973 337.742,118.973C328.556,118.973 322.739,125.423 322.739,133.882C322.739,143.821 329.099,148.631 337.199,148.631C344.265,148.631 349.701,145.195 351.278,138.693L342.852,138.693ZM273.436,142.922C271.098,142.922 269.522,141.812 269.522,139.697C269.522,136.419 273.164,135.15 278.437,135.573L278.437,137.635C278.437,141.124 275.991,142.922 273.436,142.922ZM241.799,142.922C238.537,142.922 235.167,140.807 235.167,134.728L235.167,133.459C235.167,127.009 238.157,124.683 242.071,124.683C246.093,124.683 248.865,128.172 248.865,133.723C248.865,139.856 245.93,142.922 241.799,142.922ZM342.906,130.71L331.491,130.71C332.198,126.533 334.318,124.683 337.362,124.683C340.515,124.683 342.417,126.745 342.906,130.71Z" style="fill:white;"/>
</svg>
